HIERARCHY
ROOT Hips
{
	OFFSET 0.000000 0.000000 0.000000 
	CHANNELS 6 Xposition Yposition Zposition Zrotation Yrotation Xrotation
	JOINT LeftUpLeg
	{
		OFFSET 1.363060 -1.794630 0.839290 
		CHANNELS 3 Zrotation Yrotation Xrotation
		JOINT LeftLeg
		{
			OFFSET 2.448110 -6.726130 0.000000 
			CHANNELS 3 Zrotation Yrotation Xrotation
			JOINT LeftFoot
			{
				OFFSET 2.562200 -7.039590 0.000000 
				CHANNELS 3 Zrotation Yrotation Xrotation
				JOINT LeftToeBase
				{
					OFFSET 0.157640 -0.433110 2.322550 
					CHANNELS 3 Zrotation Yrotation Xrotation
					End Site
					{
						OFFSET 0.000000 0.000000 0.000000 
					}
				}
			}
		}
	}
	JOINT RightUpLeg
	{
		OFFSET -1.305520 -1.794630 0.839290 
		CHANNELS 3 Zrotation Yrotation Xrotation
		JOINT RightLeg
		{
			OFFSET -2.542530 -6.985550 0.000000 
			CHANNELS 3 Zrotation Yrotation Xrotation
			JOINT RightFoot
			{
				OFFSET -2.568260 -7.056230 0.000000 
				CHANNELS 3 Zrotation Yrotation Xrotation
				JOINT RightToeBase
				{
					OFFSET -0.164730 -0.452590 2.363150 
					CHANNELS 3 Zrotation Yrotation Xrotation
					End Site
					{
						OFFSET 0.000000 0.000000 0.000000 
					}
				}
			}
		}
	}
	JOINT Spine
	{
		OFFSET 0.028270 2.035590 -0.193380 
		CHANNELS 3 Zrotation Yrotation Xrotation
		JOINT Spine1
		{
			OFFSET 0.056720 2.048850 -0.042750 
			CHANNELS 3 Zrotation Yrotation Xrotation
			JOINT Neck1
			{
				OFFSET -0.054170 1.746240 0.172020 
				CHANNELS 3 Zrotation Yrotation Xrotation
				JOINT Head
				{
					OFFSET 0.104070 1.761360 -0.123970 
					CHANNELS 3 Zrotation Yrotation Xrotation
					End Site
					{
						OFFSET 0.000000 0.000000 0.000000 
					}
				}
			}
			JOINT LeftArm
			{
				OFFSET 3.362410 1.200890 -0.311210 
				CHANNELS 3 Zrotation Yrotation Xrotation
				JOINT LeftForeArm
				{
					OFFSET 4.983000 -0.000000 -0.000000 
					CHANNELS 3 Zrotation Yrotation Xrotation
					JOINT LeftHand
					{
						OFFSET 3.483560 -0.000000 -0.000000 
						CHANNELS 3 Zrotation Yrotation Xrotation
						JOINT LeftHandIndex1
						{
							OFFSET 0.715260 -0.000000 -0.000000 
							CHANNELS 3 Zrotation Yrotation Xrotation
							End Site
							{
								OFFSET 0.000000 0.000000 0.000000 
							}
						}
					}
				}
			}
			JOINT RightArm
			{
				OFFSET -3.136600 1.374050 -0.404650 
				CHANNELS 3 Zrotation Yrotation Xrotation
				JOINT RightForeArm
				{
					OFFSET -5.241900 -0.000000 -0.000000 
					CHANNELS 3 Zrotation Yrotation Xrotation
					JOINT RightHand
					{
						OFFSET -3.444170 -0.000000 -0.000000 
						CHANNELS 3 Zrotation Yrotation Xrotation
						JOINT RightHandIndex1
						{
							OFFSET -0.622530 -0.000000 -0.000000 
							CHANNELS 3 Zrotation Yrotation Xrotation
							End Site
							{
								OFFSET 0.000000 0.000000 0.000000 
							}
						}
					}
				}
			}
		}
	}
}
MOTION
Frames: 16
Frame Time: 0.041667
16.651340 16.127826 0.134000 78.087212 88.272227 110.777397 -7.794889 -18.677914 -77.264936 10.733131 19.556018 63.611899 -1.912157 -12.221164 -3.070692 4.153000 -12.361200 -37.022100 5.402642 21.574650 -79.130645 -9.977993 -20.313693 63.509534 -0.978776 8.735885 -27.949823 -0.201000 -2.886600 7.963200 2.383073 0.192880 10.504260 -1.240455 1.201126 6.040746 -1.221396 -0.853129 -1.851696 1.411300 -0.551300 3.701000 -90.874523 46.317992 -82.071105 6.869328 -4.528169 -3.049212 3.264291 1.761715 8.603643 -7.125000 0.000000 0.000000 103.854749 -37.343251 -91.118753 -14.447538 7.308288 -3.242858 -4.384431 -2.223582 41.693815 7.125000 0.000000 0.000000 
16.613333 15.726911 0.118906 75.798319 88.448454 109.080988 -6.384989 -19.086690 -80.280143 11.904380 20.170943 67.456755 -1.418269 -9.535486 -2.091042 4.153500 -12.361800 -37.024400 4.474963 22.011149 -82.241562 -11.187068 -20.837846 67.341312 -0.060347 11.937517 -25.112464 -0.009600 -0.632300 1.737400 2.401897 0.108959 9.040279 -1.551791 1.093086 4.608863 -1.765642 -0.591877 -4.675640 1.425800 -0.315800 3.150800 -92.658987 40.068411 -104.896791 8.091658 -3.406693 -2.368032 3.332177 -0.228701 33.046078 -7.125000 0.000000 0.000000 103.679682 -32.366111 -92.795365 -13.643229 5.985880 -2.647784 -4.590118 -0.241137 53.673657 7.125000 0.000000 0.000000 
16.585425 15.334683 0.106961 70.349871 88.703028 103.768818 -5.256820 -19.148465 -82.698676 13.074207 20.686305 71.229640 -0.879402 -6.688623 -0.994136 4.092900 -12.283000 -36.740400 3.896541 22.576686 -85.300470 -12.658033 -21.364416 71.835701 0.667735 14.400382 -22.771068 -0.047000 1.399600 -3.849100 2.364862 0.103724 7.333436 -2.080312 0.994094 3.055908 -2.098066 -0.784543 -6.673786 1.247000 -0.329600 2.389200 -91.918288 32.596592 -124.970538 10.268936 -3.799134 -1.855542 2.166575 -2.315577 66.249507 -7.125000 0.000000 0.000000 103.375707 -26.605783 -88.781161 -12.418602 5.701437 -2.293928 -4.394631 1.323733 61.865455 7.125000 0.000000 0.000000 
16.569788 14.971231 0.095342 59.381564 88.475595 92.308892 -5.274920 -19.029111 -84.105360 14.114848 21.071552 74.595234 -0.287943 -3.622013 0.242400 4.131600 -12.333500 -36.922100 3.287270 23.148859 -87.582755 -14.119165 -21.753887 76.172603 1.227092 16.457368 -21.100077 -0.049700 1.438900 -3.957400 2.365641 0.065208 5.976249 -2.584086 0.831258 2.158426 -2.233596 -1.137622 -7.538904 1.080300 -0.500900 2.111000 -87.847499 25.966636 -141.515575 10.166537 -2.811070 -1.579676 0.264131 -3.445111 94.397988 -7.125000 0.000000 0.000000 102.394795 -19.807046 -78.855254 -10.014032 6.332922 -2.231350 -4.381408 2.200989 62.999822 7.125000 0.000000 0.000000 
16.549482 14.651867 0.079162 55.043266 88.243506 86.821718 -5.956185 -19.091583 -84.572190 15.063903 21.357016 77.664308 0.266036 -0.758665 1.567919 4.223400 -12.451800 -37.349800 3.030039 23.452351 -88.757520 -15.477096 -22.003809 80.130354 1.829169 18.827253 -19.583031 -0.236800 3.131700 -8.645700 2.300855 0.072098 4.951401 -2.617136 0.730270 1.844282 -2.582200 -1.254361 -6.956247 0.906200 -0.616700 2.526300 -86.519275 12.362045 -161.632429 16.477133 -11.738004 -1.698973 -2.141876 -2.815069 120.362471 -7.125000 0.000000 0.000000 101.426092 -13.573076 -55.115602 -5.511194 11.403770 -2.783699 -5.152098 1.344697 51.529373 7.125000 0.000000 0.000000 
16.503331 14.387884 0.054729 63.516256 88.732413 92.789844 -6.540281 -19.553757 -83.570636 16.020502 21.554733 80.674045 0.685638 1.429222 2.676569 4.357500 -12.621600 -37.967900 3.913938 23.481317 -87.803176 -16.668926 -22.129263 83.448334 2.534006 20.296816 -16.470591 -0.664200 5.212100 -14.514500 2.311006 -0.166981 4.589147 -2.229582 0.499385 2.118794 -2.647148 -1.221860 -6.370384 0.895200 -0.675600 2.816000 -84.697091 -0.499092 -164.255443 16.874444 -13.152581 -2.553888 -2.408023 4.010438 128.140845 -7.125000 0.000000 0.000000 98.226999 -6.806400 -17.766661 -7.776690 25.761977 -4.814203 -5.654198 -2.421768 19.062557 7.125000 0.000000 0.000000 
16.425581 14.165926 0.018569 80.363632 89.400842 105.328747 -7.386408 -20.117782 -80.587090 16.950684 21.670269 83.465887 0.926045 2.936951 2.248536 4.443100 -12.727700 -38.357600 5.644240 23.567685 -84.057562 -17.571655 -22.121819 85.849520 3.112343 20.822925 -12.826586 -0.662600 5.206200 -14.497500 1.999187 -0.309130 5.398026 -1.806661 0.385437 2.429504 -2.538205 -1.105434 -5.870960 0.935400 -0.659400 3.306700 -82.387283 -16.465188 -164.960484 16.658074 -12.965196 -2.663286 4.050900 -0.072658 126.814539 -7.125000 0.000000 0.000000 92.940801 3.911505 11.845116 -24.816117 42.522939 -8.845965 -2.507612 -3.725324 -5.813212 7.125000 0.000000 0.000000 
16.307000 13.966445 -0.026170 107.928309 89.728125 127.532265 -8.813215 -20.902425 -76.280298 17.772166 21.702004 85.854237 1.038578 3.810781 1.453528 4.408500 -12.685100 -38.200700 7.634586 23.353374 -78.585332 -18.236450 -22.033317 87.566478 3.472229 20.809450 -9.626602 -0.791600 5.679200 -15.856500 1.401099 -0.318650 5.331387 -1.339630 0.371648 1.868714 -2.134088 -1.290697 -6.081186 1.108300 -0.731800 3.469700 -88.903391 -26.715400 -71.961991 3.032147 -0.833278 -2.047043 -5.071768 0.704039 37.445333 -7.125000 0.000000 0.000000 90.537411 18.180808 10.223512 -32.494500 46.865705 -10.435467 -1.540472 -2.146649 20.451386 7.125000 0.000000 0.000000 
16.142594 13.764142 -0.064285 130.608074 89.660021 144.826914 -10.353938 -21.434645 -72.177802 18.526249 21.685915 88.023746 1.104790 4.388029 0.695070 4.343400 -12.603900 -37.903400 9.580724 23.139536 -73.358394 -18.851889 -21.902180 89.185319 3.681267 20.757049 -7.279691 -1.128000 6.745900 -18.964700 1.199932 -0.514954 5.328652 -1.262581 0.183590 1.077801 -2.227013 -1.164885 -6.810161 0.970200 -0.665300 3.446400 -90.821457 -36.068922 18.739241 20.009959 -32.419365 -7.167903 -2.218556 -1.539339 -47.681509 -7.125000 0.000000 0.000000 89.931409 36.537263 -0.206666 -38.552417 48.495733 -11.253671 -0.880631 -0.680362 93.551147 7.125000 0.000000 0.000000 
15.944743 13.547830 -0.089913 141.905718 89.933704 151.666797 -11.508751 -20.854985 -69.443279 19.278525 21.668520 90.217812 1.218523 5.224685 0.316159 4.348400 -12.610100 -37.926000 11.221602 23.655402 -69.796803 -19.584828 -21.779257 91.215830 3.726874 20.581897 -6.041423 -1.351800 7.360100 -20.786800 1.213134 -0.357066 4.964035 -1.148291 0.164550 0.612627 -2.016773 -1.227798 -8.474503 1.015900 -0.634700 2.943800 -92.291294 -55.074679 21.194774 28.882252 -38.476800 -10.013055 0.051246 -1.507093 -45.927823 -7.125000 0.000000 0.000000 91.454029 53.250040 2.696334 -35.370322 46.946380 -10.444477 -0.695936 0.254841 136.414367 7.125000 0.000000 0.000000 
15.737878 13.352368 -0.111739 -22.124575 89.941886 -15.867777 -12.589445 -19.650127 -67.081421 19.540217 21.651012 91.043283 1.340966 6.129359 0.241399 4.474300 -12.766100 -38.499200 12.604699 24.057349 -67.320354 -20.239474 -21.673077 93.063126 3.658932 20.200538 -5.548546 -1.457200 7.629900 -21.595400 0.964946 -0.230731 4.317683 -0.594257 0.100764 0.575322 -1.890515 -1.498452 -10.812550 1.055500 -0.665000 2.227800 -99.304647 -66.876005 44.112381 22.402109 -32.294268 -5.775781 0.901193 -1.187216 -55.396269 -7.125000 0.000000 0.000000 98.543867 70.827727 11.206522 -29.792526 45.059357 -8.878452 -0.197093 1.013547 151.101201 7.125000 0.000000 0.000000 
15.553927 13.221408 -0.138235 178.251760 89.159435 -178.291130 -13.234122 -19.048939 -65.081725 19.768385 21.614538 91.739218 1.410466 6.682745 0.110180 4.526100 -12.829400 -38.733200 13.985805 23.557681 -65.123183 -20.563305 -21.612329 93.997180 3.588233 20.039796 -5.843340 -1.075500 6.592200 -18.512700 0.696718 -0.461507 3.691631 -0.729684 -0.077343 0.252532 -1.463009 -2.106538 -13.715044 1.159500 -0.823200 1.270600 -111.236723 -80.604367 67.391813 22.797882 -34.194272 -5.383444 0.254391 1.587790 -55.672071 -7.125000 0.000000 0.000000 114.753360 81.042839 28.371322 -21.581164 40.343239 -5.695939 0.512657 2.259047 151.589732 7.125000 0.000000 0.000000 
15.414388 13.195346 -0.174505 -170.129474 87.830278 -168.783012 -13.579618 -18.916466 -63.275486 19.894572 21.535224 92.033788 1.280415 5.814576 -0.134561 4.256600 -12.494200 -37.503600 15.295485 22.177799 -63.069150 -20.574066 -21.593530 94.027524 3.499522 19.722217 -6.103153 -0.808500 5.738400 -16.027300 1.321454 -1.084762 2.118627 0.256925 -0.502800 -2.170626 -1.500326 -2.396225 -15.549179 1.175200 -0.872500 0.627400 52.153843 -89.601883 -84.056626 21.388784 -35.707375 -6.416180 0.459290 2.553196 -60.938057 -7.125000 0.000000 0.000000 176.640397 88.086150 103.026465 -14.892356 33.315144 -2.060308 1.657100 1.684769 126.181300 7.125000 0.000000 0.000000 
15.377250 13.367570 -0.235858 -159.991286 87.028210 -162.380491 -14.769183 -17.547920 -58.227001 19.286123 21.426063 90.235256 1.338547 6.889696 -3.533817 6.413700 -14.817600 -46.620100 17.859258 20.320792 -57.390959 -19.808116 -21.475916 91.835206 3.344104 19.016823 -6.553083 -0.873400 5.958400 -16.663700 1.582211 -1.335983 3.395838 1.707314 -0.694289 -0.406050 -1.650984 -3.166926 -14.828808 1.432700 -1.118900 0.713700 89.672887 -70.409600 -123.736235 21.393642 -41.706338 -6.955933 0.489184 0.098267 -64.653423 -7.125000 0.000000 0.000000 -94.754224 72.736100 -138.474507 -16.785764 39.061406 -3.397671 0.714540 -0.624125 44.846287 7.125000 0.000000 0.000000 
15.401249 13.747853 -0.301555 -137.163346 85.597570 -145.256385 -15.271272 -14.603930 -49.507548 18.041910 21.026887 86.530923 1.197235 6.117526 -6.517077 7.744900 -15.928400 -51.638400 22.928610 17.462931 -47.157851 -18.053149 -21.056428 86.791047 3.097461 18.169900 -8.189337 -0.851100 5.883900 -16.448100 1.500501 -0.985346 3.113566 0.523239 -0.513492 -2.603745 -1.249152 -3.876674 -16.587434 1.561100 -1.459400 -0.075000 78.305380 -62.329291 -104.817261 26.783757 -45.608673 -9.611500 0.623154 1.131979 -68.511786 -7.125000 0.000000 0.000000 -79.937491 62.832618 -111.445789 -24.649548 46.385140 -6.866954 0.591988 -2.327163 0.764540 7.125000 0.000000 0.000000 
15.466077 14.326857 -0.389296 -149.758420 87.545343 -162.272648 -18.356793 -11.110859 -41.226528 16.220617 20.572180 81.159467 0.905808 3.663155 -8.129593 8.043200 -16.150900 -52.718200 23.410276 14.151390 -37.785064 -16.117675 -20.221267 81.007777 2.677479 16.981178 -10.867197 -0.763900 5.581400 -15.574500 -0.171089 0.064138 2.753804 0.392247 0.115972 -4.245283 -0.307625 -4.833656 -16.379919 1.924600 -1.982000 -0.288500 74.022907 -54.308843 -97.017265 30.832953 -48.557328 -11.893370 0.431855 1.270923 -72.113997 -7.125000 0.000000 0.000000 -76.153822 52.976111 -106.266968 -31.720375 51.714883 -9.941624 1.341414 -3.294659 -17.922630 7.125000 0.000000 0.000000 
